<?xml version="1.0" encoding="utf-8"?>
<!-- Generator: Adobe Illustrator 27.7.0, SVG Export Plug-In . SVG Version: 6.00 Build 0)  -->
<svg version="1.1" id="Ebene_1" xmlns="http://www.w3.org/2000/svg" xmlns:xlink="http://www.w3.org/1999/xlink" x="0px" y="0px"
	 viewBox="0 0 300 108" style="enable-background:new 0 0 300 108;" xml:space="preserve">
<style type="text/css">
	.st0{fill:#FFFFFF;}
</style>
<g>
	<path class="st0" d="M242.2,58.6h5.6V25.1h-5.6V58.6L242.2,58.6z M242.2,17.3h5.6v-6.2h-5.6V17.3L242.2,17.3z M258,49.1
		c0,10,7.8,10,16.1,10h10.4c6.9,0,15.5-0.3,15.5-9.7v-0.1c0-9.1-5.8-9.9-14.2-9.9h-14.9c-5.9,0-6.8-1.6-6.8-4.3v-1.2
		c0-3.8,1.8-4.6,9.8-4.6h9.8c6.2,0,9.6,0.1,9.6,5.2v0.3h5.2V33c0-4.7-1.8-8.4-14.5-8.4h-8.7c-13.9,0-17,3-17,8.5v2
		c0,6.4,3,8.9,10.9,8.9h17.4c6.8,0,7.7,1.8,7.7,5v0.3c0,5-2.7,5.3-11.1,5.3h-12.1c-5.8,0-7.9-1.7-7.9-5.8v-1.6H258V49.1L258,49.1z"
		/>
	<path class="st0" d="M65.9,58.6h6.7l18.9-33.5h-6L69.3,54L53,25.1h-6L65.9,58.6L65.9,58.6z M132.9,38.3h-31.5
		c0.5-7.6,2.6-9.1,11.5-9.1h8.3c9.2,0,11.7,3.4,11.7,6.8V38.3L132.9,38.3z M95.7,45.4c0,12.3,8.4,13.7,15.7,13.7h10.2
		c10.5,0,16.9-2.3,16.9-10v-0.7h-5.6c-0.3,5.1-3.2,6-10.3,6h-7.7c-9.8,0-13.5-2-13.5-9.6v-2.1h37.2V39c0-11.9-7.3-14.5-17.4-14.5
		h-9.1c-8,0-16.4,1.4-16.4,13.5L95.7,45.4L95.7,45.4z M147.8,58.6h5.6V37.3c0-4.3,2.9-8.1,8.9-8.1h3.5c10,0,11.7,1.3,11.7,9.6v1.4
		h5.2v-4c0-8.2-3.5-11.6-14-11.6h-5.3c-3.9,0-8.1,1-10.2,5.4h-0.1v-4.9h-5.2L147.8,58.6L147.8,58.6z M226.6,45c0,6.5-2,9.6-11.2,9.6
		h-9.2c-8.4,0-11.1-3.5-11.1-9.6v-6.4c0-8,4.7-9.3,12.3-9.3h7.6c7.7,0,11.6,1.4,11.6,9.2L226.6,45L226.6,45z M189.5,58.6h5.2v-5.3
		h0.1c1.6,4.1,6.2,5.8,12.1,5.8h7.9c10.2,0,17.4-2.6,17.4-14.1v-5.9c0-10.7-4.1-14.5-17.7-14.5h-8.6c-6.4,0-9.5,1.5-10.7,5h-0.1
		V11.1h-5.6L189.5,58.6L189.5,58.6z"/>
	<path class="st0" d="M36.3,58.6H42V36.2c0-10-7.1-11.5-17.6-11.5h-8.9c-10.1,0-14,2.5-14,8.6v1.6h5.6v-1.2c0-2.8,1.4-4.5,8.5-4.5
		h8.3c8.7,0,12.5,0.8,12.5,6.8v6.3h-0.1c-2-3.2-4.6-4-11.9-4h-9.1C5.4,38.3,0,39.2,0,46.9v2.2c0,6.3,2.2,10,10.8,10h13.5
		c8.7,0,10.4-0.9,11.9-3.9h0.1L36.3,58.6L36.3,58.6z M36.3,49.6c0,4.2-3.9,4.9-14.2,4.9h-7.5c-7.7,0-9.1-1.6-9.1-5.3v-1
		c0-4.2,2-5.2,9.3-5.2h8.7c8.7,0,12.7,0.6,12.7,5.2v1.4C36.2,49.6,36.3,49.6,36.3,49.6z"/>
	<path class="st0" d="M52.1,89.4c0,1.8,0.8,3.5,4.4,3.5h1c4.1,0,4.3-1.8,4.3-4v-1.2h-1.5v0.8c0,2.3-0.4,2.9-2.9,2.9h-0.6
		c-2.1,0-2.8-0.6-2.8-2.7v-5.6h7.5v-1.5H54v-2.7h-1.9v2.7h-2.5v1.5h2.5V89.4L52.1,89.4z M80.6,86H70c0.2-2.5,0.9-3,3.9-3h2.8
		c3.1,0,3.9,1.1,3.9,2.3L80.6,86L80.6,86z M68.2,88.4c0,4.1,2.8,4.6,5.3,4.6h3.4c3.5,0,5.6-0.8,5.6-3.3v-0.2h-1.9
		c-0.1,1.7-1.1,2-3.4,2h-2.6c-3.3,0-4.5-0.7-4.5-3.2v-0.7h12.4v-1.2c0-4-2.4-4.8-5.8-4.8h-3c-2.7,0-5.5,0.5-5.5,4.5V88.4L68.2,88.4z
		 M88.3,92.8H91l4.8-4.8l4.8,4.8h2.7l-6.1-6l5.3-5.2h-2.6l-4.1,4.1l-4.1-4.1h-2.6l5.3,5.2L88.3,92.8L88.3,92.8z M110.7,89.4
		c0,1.8,0.8,3.5,4.4,3.5h1c4.1,0,4.3-1.8,4.3-4v-1.2h-1.5v0.8c0,2.3-0.4,2.9-2.9,2.9h-0.6c-2.1,0-2.8-0.6-2.8-2.7v-5.6h7.5v-1.5
		h-7.5v-2.7h-1.9v2.7h-2.5v1.5h2.5V89.4L110.7,89.4z M154,92.8h1.9v-7.5c0-3.3-2.4-3.9-5.9-3.9h-3c-3.4,0-4.7,0.8-4.7,2.9v0.5h1.9
		v-0.4c0-0.9,0.5-1.5,2.8-1.5h2.8c2.9,0,4.2,0.3,4.2,2.3v2.1l0,0c-0.7-1.1-1.5-1.3-4-1.3h-3c-3.3,0-5.1,0.3-5.1,2.8v0.7
		c0,2.1,0.7,3.4,3.6,3.4h4.5c2.9,0,3.5-0.3,4-1.3l0,0V92.8L154,92.8z M154,89.8c0,1.4-1.3,1.6-4.7,1.6h-2.5c-2.6,0-3-0.5-3-1.8v-0.4
		c0-1.4,0.7-1.8,3.1-1.8h2.9c2.9,0,4.2,0.2,4.2,1.7V89.8L154,89.8z M163.8,92.8h1.9v-6.4c0-2.6,1-3.5,5.4-3.5h0.5
		c3.7,0,4.1,1.1,4.1,2.7v7.1h1.9v-7.6c0-2-1.1-3.8-4.6-3.8h-2.8c-2.3,0-3.8,0.4-4.5,2.1l0,0v-1.9h-1.8L163.8,92.8L163.8,92.8z
		 M197.3,92.8h1.9v-7.5c0-3.3-2.4-3.9-5.9-3.9h-3c-3.4,0-4.7,0.8-4.7,2.9v0.5h1.9v-0.4c0-0.9,0.5-1.5,2.8-1.5h2.8
		c2.9,0,4.2,0.3,4.2,2.3v2.1l0,0c-0.7-1.1-1.5-1.3-4-1.3h-3c-3.3,0-5.1,0.3-5.1,2.8v0.7c0,2.1,0.7,3.4,3.6,3.4h4.5
		c2.9,0,3.5-0.3,4-1.3l0,0V92.8L197.3,92.8z M197.3,89.8c0,1.4-1.3,1.6-4.7,1.6H190c-2.6,0-3-0.5-3-1.8v-0.4c0-1.4,0.7-1.8,3.1-1.8
		h2.9c2.9,0,4.2,0.2,4.2,1.7v0.7L197.3,89.8L197.3,89.8z M207.3,92.8h1.9V76.9h-1.9V92.8L207.3,92.8z M218.2,96.9
		c3.9,0,4.7-0.5,5.8-2.8l6.3-12.5h-2l-4.9,9.9l-5.4-9.9h-2.1l6.3,11.3h0.5c-1,2.3-1.6,2.5-4.5,2.5L218.2,96.9L218.2,96.9z
		 M237.8,89.4c0,1.8,0.8,3.5,4.4,3.5h1c4.1,0,4.3-1.8,4.3-4v-1.2H246v0.8c0,2.3-0.4,2.9-2.9,2.9h-0.6c-2.1,0-2.8-0.6-2.8-2.7v-5.6
		h7.5v-1.5h-7.5v-2.7h-1.9v2.7h-2.5v1.5h2.5V89.4L237.8,89.4z M254.7,92.8h1.9V81.6h-1.9L254.7,92.8L254.7,92.8z M254.7,79h1.9v-2.1
		h-1.9L254.7,79L254.7,79z M264.5,88.4c0,4.1,3,4.5,4.7,4.5h4.2c3.5,0,4.9-1.1,4.9-3.9v-0.3h-1.8v0.4c0,1.8-1.5,2.3-3.2,2.3h-3.2
		c-2.3,0-3.8-0.6-3.8-3.1V86c0-2.8,1.7-3,3.4-3h3.5c1.9,0,3.1,0.4,3.1,2.3v0.3h1.8v-0.3c0-2.4-1.4-3.8-4.9-3.8H270
		c-2.8,0-5.6,0.5-5.6,4.5v2.4H264.5z M285.4,89.6c0,3.4,2.6,3.4,5.4,3.4h3.5c2.3,0,5.2-0.1,5.2-3.2l0,0c0-3-1.9-3.3-4.8-3.3h-5
		c-2,0-2.3-0.5-2.3-1.4v-0.4c0-1.3,0.6-1.5,3.3-1.5h3.3c2.1,0,3.2,0,3.2,1.8v0.1h1.8v-0.6c0-1.6-0.6-2.8-4.8-2.8h-2.9
		c-4.6,0-5.7,1-5.7,2.8v0.7c0,2.1,1,3,3.6,3h5.8c2.3,0,2.6,0.6,2.6,1.7V90c0,1.7-0.9,1.8-3.7,1.8h-4c-1.9,0-2.7-0.6-2.7-1.9v-0.5
		h-1.8V89.6L285.4,89.6z"/>
</g>
</svg>
